<?xml version="1.0" encoding="utf-8"?>
<!-- Generator: Adobe Illustrator 27.9.0, SVG Export Plug-In . SVG Version: 6.00 Build 0)  -->
<svg version="1.1" id="Livello_1" xmlns="http://www.w3.org/2000/svg" xmlns:xlink="http://www.w3.org/1999/xlink" x="0px" y="0px"
	 viewBox="0 0 337 132" style="enable-background:new 0 0 337 132;" xml:space="preserve">
<style type="text/css">
	.st0{clip-path:url(#SVGID_00000165194834178906310040000010138430586251199895_);}
	.st1{fill:#FFE000;}
	.st2{fill:#FFFFFF;}
</style>
<g>
	<g>
		<defs>
			<rect id="SVGID_1_" y="0" width="337" height="132"/>
		</defs>
		<clipPath id="SVGID_00000003809285711618180080000015344945309499389067_">
			<use xlink:href="#SVGID_1_"  style="overflow:visible;"/>
		</clipPath>
		<g style="clip-path:url(#SVGID_00000003809285711618180080000015344945309499389067_);">
			<path class="st1" d="M203.2,115.2c0-9.3-7.6-16.8-17-16.8c-0.1,0-0.2,0-0.3,0L0,98.5V132h185.9c0.1,0,0.2,0,0.3,0
				C195.6,132,203.2,124.5,203.2,115.2z"/>
			<path class="st1" d="M247.8,115.2c0,9.3-7.6,16.8-17,16.8s-17-7.5-17-16.8s7.6-16.8,17-16.8C240.2,98.5,247.8,106,247.8,115.2z"
				/>
			<path class="st1" d="M292.4,115.2c0,9.3-7.6,16.8-17,16.8s-17-7.5-17-16.8s7.6-16.8,17-16.8S292.4,106,292.4,115.2z"/>
			<path class="st1" d="M337,115.2c0,9.3-7.6,16.8-17,16.8s-17-7.5-17-16.8s7.6-16.8,17-16.8S337,106,337,115.2z"/>
			<path class="st2" d="M39.5,76.8C18.2,76.8,0,61,0,38.4S18.1,0,38.4,0c16.4,0,26.5,6.8,32.8,16.1L55.9,26.3
				c-2.9-4.4-7.6-8.9-17.2-8.9c-11.2,0-18,9.2-18,20.9c0,11.8,7,21.1,18.6,21.1c9.8,0,14.6-4.4,17.9-10.4l15.7,10
				C65.4,71.4,54.9,76.8,39.5,76.8L39.5,76.8z"/>
			<path class="st2" d="M140.6,75.8h-22L108,58.6h-7.6v17.2H80.1v-75h28.8c20.4,0,31.9,12.8,31.9,29.4c0,10.8-4.8,19.4-13.7,24.3
				L140.6,75.8L140.6,75.8z M107.9,42.7c9.2,0,12.5-5.1,12.5-12.3s-3.3-12.5-12.5-12.5h-7.5v24.8H107.9z"/>
			<path class="st2" d="M148,38.4C148,15.8,166.8,0,188.7,0s40.7,15.8,40.7,38.4s-18.9,38.5-40.7,38.5S148,61,148,38.4z M208.7,38.4
				c0-11.8-7.3-20.9-20-20.9s-20,9.2-20,20.9c0,11.8,7.3,21.1,20,21.1C201.4,59.4,208.7,50.2,208.7,38.4z"/>
			<path class="st2" d="M276.1,76.8c-21.3,0-39.5-15.9-39.5-38.5C236.6,15.8,254.7,0,275,0c16.4,0,26.5,6.8,32.8,16.1l-15.3,10.2
				c-2.9-4.4-7.6-8.9-17.2-8.9c-11.2,0-18,9.2-18,20.9c0,11.8,7,21.1,18.6,21.1c9.8,0,14.6-4.4,17.9-10.4l15.6,9.9
				C302,71.4,291.5,76.8,276.1,76.8L276.1,76.8z"/>
			<path class="st2" d="M316.7,0.9H337v75h-20.3V0.9z"/>
		</g>
	</g>
</g>
</svg>
