<?xml version="1.0" encoding="UTF-8"?>
<svg xmlns="http://www.w3.org/2000/svg" width="335.124" height="113.452" viewBox="0 0 335.124 113.452">
  <g id="Grupo_73" data-name="Grupo 73" transform="translate(-488.085 -31.71)">
    <path id="Trazado_436" data-name="Trazado 436" d="M830.493,71.24l25.143,3.471c-1.975,15.027-8.418,31.272-14.7,54.772l-11.076-1.541C830.123,103.629,828.425,86.248,830.493,71.24Zm-8.843,72.448a11.409,11.409,0,0,1,22.586,3.138c-.923,6.36-6.258,10.283-12.766,9.378S820.755,150.048,821.65,143.688Z" transform="translate(-38.012 -34.887)" fill="#d779c6"></path>
    <path id="Trazado_309" data-name="Trazado 309" d="M563.607,78.86l.923,8.695c-3.969,2.021-5.76,3.914-8.215,7.67l-13.282,20.87,1.385,13.282c.314,3,.314,3,9.959,2.649l.923,8.7L521.037,144.3l-.923-8.695c9.507-1.652,9.507-1.652,9.23-4.615l-1.338-12.719L511.558,99.942c-3.138-3.415-4.984-5.1-9.175-5.889l-.923-8.7,29-3.028.923,8.695c-4.911,1.08-5.787,1.745-3.84,4.089l8.861,11.187,6.738-12.627c1.523-2.7.535-3.083-3.692-3.489l-.923-8.7Z" transform="translate(-13.375 -35.474)" fill="#fff"></path>
    <path id="Trazado_310" data-name="Trazado 310" d="M565.834,118.459c-1.458-13.845,5.741-24.811,19.162-26.214,14.639-1.532,23.279,6.655,24.857,21.617,1.44,13.753-5.741,24.811-19.162,26.214C576.043,141.608,567.4,133.43,565.834,118.459Zm29.537-3.083c-.923-8.8-3.434-12.793-8.88-12.221-5.067.526-7.144,5.1-6.23,13.845s3.434,12.784,8.972,12.2c5.1-.572,7.08-5.132,6.166-13.827Z" transform="translate(-18.316 -36.49)" fill="#fff"></path>
    <path id="Trazado_313" data-name="Trazado 313" d="M686.517,82.85l1.006,9.544c-2.548,2.908-2.64,2.917-4.3,10.559L677.444,129.2,662.8,130.718,657.063,117.7l-3.858-9.627L651.359,118.3l-2.908,13.919-14.768,1.541-11.076-24.857c-2.991-6.775-3.083-6.766-6.267-9.083l-.969-9.544,21.867-2.289,1.025,9.766c-3.544,1.514-4.052,2.04-3.628,3.406L638.1,111.6l2.584,8.307h.092l1.449-8.75,4.763-24.239,9.479-.988,9.636,23.076,3.323,9.018h.286l.923-9.461,1.348-11.584c.157-1.246-.646-1.634-4.707-2.344l-1.025-9.729Z" transform="translate(-22.143 -35.781)" fill="#fff"></path>
    <path id="Trazado_322" data-name="Trazado 322" d="M704.7,103.676l3.378-24.128c.425-2.981.425-2.981-6.969-4.68l1.218-8.658,29.906,4.163-1.209,8.658c-7.569-.388-7.569-.388-7.984,2.594l-3.369,24c-1.071,7.643,1.468,12.645,9.036,13.7,6.729.923,10.061-3.821,11.178-11.741l3.36-24c.314-2.234.314-2.234-6.71-3.784l1.209-8.658,27.3,3.794L763.774,83.6c-7.273-.443-7.384-.268-7.68,1.781l-3.4,24.128c-2.335,16.67-11.953,24.737-27.562,22.568C707.691,129.64,702.7,117.65,704.7,103.676Z" transform="translate(-28.743 -34.5)" fill="#fff"></path>
    <path id="Trazado_369" data-name="Trazado 369" d="M814.789,120.575c-2.077,14.768-12.922,23.657-22.66,22.3a15.461,15.461,0,0,1-10.523-5.824l-.978,6.978c-.443,3.175-.443,3.175,5.926,4.615l-1.181,8.483-25.522-3.554,1.191-8.473c5.4.185,5.4.185,5.843-2.991l5.16-36.792c.249-1.772.249-1.772-5.058-3.369L768.3,92.46c9.332.729,13.956,1.089,18.544.969l-1.708,9.443.609,1.135c3.175-5.64,7.827-9.646,15.405-8.593C810.884,96.771,816.718,106.8,814.789,120.575Zm-14.455-.849c1.071-7.643-1.5-11.8-7.107-12.572a13.6,13.6,0,0,0-7.587,1.126l-2.529,18.073a9.637,9.637,0,0,0,6.507,3.849C795.414,130.987,799.291,127.157,800.334,119.726Z" transform="translate(-33.265 -36.521)" fill="#fff"></path>
    <path id="Trazado_445" data-name="Trazado 445" d="M863.6,157.748a5.594,5.594,0,1,1-5.621-5.538,5.446,5.446,0,0,1,5.621,5.538Zm-1.015,0a4.449,4.449,0,0,0-4.615-4.514,4.541,4.541,0,0,0,0,9.073,4.468,4.468,0,0,0,4.615-4.56Zm-3.978.434,1.735,2.141h-1.181l-1.615-2.123h-.258v2.123h-.923v-5.04h1.846c1.154,0,1.846.489,1.846,1.44a1.449,1.449,0,0,1-1.449,1.458Zm-.591-.655c.683,0,1.052-.231,1.052-.757s-.369-.692-.988-.692h-.821v1.477Z" transform="translate(-40.389 -41.12)" fill="#fff"></path>
    <path id="Trazado_311" data-name="Trazado 311" d="M594.2,165.06q4.514,0,6.9,2.2t2.391,6.415A8.243,8.243,0,0,1,601,180.133a9.925,9.925,0,0,1-6.941,2.252h-6.59v-1.5a15.851,15.851,0,0,0,2.068-.166.406.406,0,0,0,.3-.452V167.183c0-.258-.092-.406-.3-.462a16.758,16.758,0,0,0-2.068-.157v-1.5Zm.129,15.479a6.212,6.212,0,0,0,4.855-1.781,7.384,7.384,0,0,0,1.606-5.086q0-6.784-6.461-6.784H592.39v13.652Z" transform="translate(-19.996 -42.109)" fill="#fff"></path>
    <path id="Trazado_312" data-name="Trazado 312" d="M619.015,180.458l.212.268a2.769,2.769,0,0,1-.923,1.726,2.566,2.566,0,0,1-1.7.628,1.735,1.735,0,0,1-1.3-.489,2.1,2.1,0,0,1-.471-1.5V180.5l-.221-.24a4.08,4.08,0,0,1-4.006,2.815,3.249,3.249,0,0,1-2.474-.923,3.4,3.4,0,0,1-.923-2.455,2.889,2.889,0,0,1,.923-2.289,7.763,7.763,0,0,1,3.12-1.412l3.231-.8v-1.126a2.077,2.077,0,0,0-.517-1.532,2.963,2.963,0,0,0-3.48.12,2.427,2.427,0,0,0-.582,1.708l-2.261-.351a3.3,3.3,0,0,1,1.292-2.769,5.538,5.538,0,0,1,3.471-1q4.421,0,4.412,3.692v6.037c0,.628.286.923.868.923a2.206,2.206,0,0,0,1.329-.443Zm-7.6.692a3.757,3.757,0,0,0,3.129-1.551v-2.769l-2.723.8a4.385,4.385,0,0,0-1.68.794,1.56,1.56,0,0,0-.526,1.218,1.394,1.394,0,0,0,.471,1.108,1.985,1.985,0,0,0,1.338.4Z" transform="translate(-21.515 -42.508)" fill="#fff"></path>
    <path id="Trazado_315" data-name="Trazado 315" d="M620.993,182.324v-1.44a9.229,9.229,0,0,0,1.625-.175c.157-.065.231-.24.231-.526v-8.049a.3.3,0,0,0-.24-.323c-.166,0-.729-.083-1.7-.157V170.02a40.244,40.244,0,0,0,4.31-.277v10.439q0,.434.222.526a9.542,9.542,0,0,0,1.634.175v1.44Zm3.692-14.925a1.634,1.634,0,0,1-1.182.443,1.652,1.652,0,0,1-1.191-.443,1.735,1.735,0,0,1,0-2.335,1.652,1.652,0,0,1,1.191-.443,1.634,1.634,0,0,1,1.182.443A1.708,1.708,0,0,1,624.685,167.4Z" transform="translate(-22.57 -42.075)" fill="#fff"></path>
    <path id="Trazado_316" data-name="Trazado 316" d="M636.543,170.17a4.449,4.449,0,0,1,.775.083V172.7a8.535,8.535,0,0,0-.858-.055,5.169,5.169,0,0,0-3.609,1.634v6.332q0,.434.3.526a15.328,15.328,0,0,0,2.1.175v1.44h-6.618v-1.44a9.228,9.228,0,0,0,1.625-.175c.157-.065.231-.24.231-.526v-8.049a.3.3,0,0,0-.24-.323c-.166,0-.729-.083-1.7-.157v-1.634a39.218,39.218,0,0,0,4.172-.277l-.083,2.926.138.194a7.938,7.938,0,0,1,1.652-2.326,3.055,3.055,0,0,1,2.114-.794Z" transform="translate(-23.158 -42.502)" fill="#fff"></path>
    <path id="Trazado_317" data-name="Trazado 317" d="M647.554,170.47h5.677V172.1a9.556,9.556,0,0,0-1.329.268.627.627,0,0,0-.332.378l-4.615,11.556a6.12,6.12,0,0,1-1.7,2.612,3.693,3.693,0,0,1-2.391.766,6.645,6.645,0,0,1-1.911-.3l.48-1.984a3.018,3.018,0,0,0,1.237.268,2.455,2.455,0,0,0,2.4-1.846l.4-1.071-4.347-9.95a.674.674,0,0,0-.351-.425,8.627,8.627,0,0,0-1.32-.24v-1.634h5.9v1.634a4.873,4.873,0,0,0-1.671.268.54.54,0,0,0,.083.3l1.938,4.744.923,2.446.858-2.446,1.726-4.744q.111-.314-.111-.388a12.827,12.827,0,0,0-1.588-.175Z" transform="translate(-23.997 -42.525)" fill="#fff"></path>
    <path id="Trazado_318" data-name="Trazado 318" d="M667.646,164.769a4.071,4.071,0,0,1,2.769.923l-.923,1.846a2.169,2.169,0,0,0-1.754-.775,1.791,1.791,0,0,0-1.412.591,2.381,2.381,0,0,0-.526,1.634v1.08h3.424v1.846H665.8v8.307c0,.286.1.462.3.526a15.738,15.738,0,0,0,2.1.175v1.44h-6.6v-1.44a9.544,9.544,0,0,0,1.634-.175c.148-.065.231-.24.231-.526v-8.307h-1.846v-.406l1.846-1.468v-.757a4.763,4.763,0,0,1,1.089-3.258,3.867,3.867,0,0,1,3.092-1.255Z" transform="translate(-25.702 -42.086)" fill="#fff"></path>
    <path id="Trazado_319" data-name="Trazado 319" d="M677.123,183.067a5.64,5.64,0,0,1-4.32-1.745,7.55,7.55,0,0,1,0-9.4,5.427,5.427,0,0,1,4.19-1.846,5.6,5.6,0,0,1,4.311,1.745,6.618,6.618,0,0,1,1.634,4.717,6.72,6.72,0,0,1-1.652,4.671,5.409,5.409,0,0,1-4.163,1.855Zm-.055-2.058a3.12,3.12,0,0,0,2.51-1.145,5.03,5.03,0,0,0,.923-3.286,5.2,5.2,0,0,0-.923-3.286,3.064,3.064,0,0,0-2.548-1.135,3.111,3.111,0,0,0-2.511,1.145,5.022,5.022,0,0,0-.923,3.277,5.142,5.142,0,0,0,.923,3.286A3.111,3.111,0,0,0,677.068,181.008Z" transform="translate(-26.438 -42.495)" fill="#fff"></path>
    <path id="Trazado_323" data-name="Trazado 323" d="M693.543,170.17a4.458,4.458,0,0,1,.785.083V172.7c-.36,0-.646-.055-.868-.055a5.132,5.132,0,0,0-3.6,1.634v6.332c0,.286.092.462.3.526a15.327,15.327,0,0,0,2.1.175v1.44h-6.618v-1.44a9.23,9.23,0,0,0,1.625-.175c.157-.065.231-.24.231-.526v-8.049a.3.3,0,0,0-.24-.323c-.166,0-.729-.083-1.7-.157v-1.634a39.009,39.009,0,0,0,4.172-.277l-.083,2.926.138.194a7.94,7.94,0,0,1,1.652-2.326A3.055,3.055,0,0,1,693.543,170.17Z" transform="translate(-27.545 -42.502)" fill="#fff"></path>
    <path id="Trazado_324" data-name="Trazado 324" d="M711.3,170.12a4.5,4.5,0,0,1,3.581,1.745,7.689,7.689,0,0,1-.249,9.313,5.169,5.169,0,0,1-3.978,1.892,5.621,5.621,0,0,1-3.369-1.015v3.268c0,.3.092.489.268.545a16.9,16.9,0,0,0,1.938.157v1.449h-6.461v-1.449a11.884,11.884,0,0,0,1.624-.157c.148-.055.231-.24.231-.545V172.557a.3.3,0,0,0-.249-.323c-.157,0-.729-.083-1.717-.157v-1.634a38.377,38.377,0,0,0,4.172-.277l-.055,2.575.138.194a4.2,4.2,0,0,1,4.126-2.815Zm-.923,10.966a3.184,3.184,0,0,0,2.584-1.218,4.994,4.994,0,0,0,1-3.258,4.735,4.735,0,0,0-.923-3.111,3.212,3.212,0,0,0-2.612-1.1,4.163,4.163,0,0,0-3.074,1.209v5.981a3.747,3.747,0,0,0,3.027,1.5Z" transform="translate(-28.882 -42.498)" fill="#fff"></path>
    <path id="Trazado_326" data-name="Trazado 326" d="M725.461,170.12a4.5,4.5,0,0,1,3.9,1.938,7.513,7.513,0,0,1,1.163,5h-8.427a3.849,3.849,0,0,0,1.135,2.871,4.329,4.329,0,0,0,3.064,1,4.892,4.892,0,0,0,3.822-1.477l.24.212a4.3,4.3,0,0,1-1.56,2.483,4.9,4.9,0,0,1-3.12.923,5.806,5.806,0,0,1-4.338-1.643,6.194,6.194,0,0,1-1.606-4.5,7.624,7.624,0,0,1,1.542-4.818,5.03,5.03,0,0,1,4.19-1.994Zm-.083,1.929a2.769,2.769,0,0,0-1.975.831,4.44,4.44,0,0,0-1.172,2.363h5.834Q727.861,172.049,725.378,172.049Z" transform="translate(-30.176 -42.498)" fill="#fff"></path>
    <path id="Trazado_327" data-name="Trazado 327" d="M738.141,182.7a2.917,2.917,0,0,1-2.344-.923,3.821,3.821,0,0,1-.775-2.548v-7.144H732.76v-1.846l1.08-.083a1.4,1.4,0,0,0,1.117-.563,11,11,0,0,0,.6-2.52H737.4v3.166h4.071v1.846H737.4v6.71a1.6,1.6,0,0,0,1.781,1.846,3.692,3.692,0,0,0,2.391-.72l.249.185a3.8,3.8,0,0,1-1.32,1.92,3.757,3.757,0,0,1-2.363.674Z" transform="translate(-31.179 -42.264)" fill="#fff"></path>
    <path id="Trazado_330" data-name="Trazado 330" d="M749.538,183.073a3.692,3.692,0,0,1-3.526-2.058h-.157l-.3,1.966h-1.5v-4.615h1.237a3.692,3.692,0,0,0,3.775,2.769,2.483,2.483,0,0,0,1.5-.415,1.357,1.357,0,0,0,.563-1.163,1.56,1.56,0,0,0-.415-1.135,3.322,3.322,0,0,0-1.578-.692l-1.966-.48Q744,176.584,744,173.7a3.424,3.424,0,0,1,1.024-2.52,3.692,3.692,0,0,1,2.769-1.015,3.184,3.184,0,0,1,2.991,1.846h.166l.24-1.745h1.615v4.218h-1.348a2.9,2.9,0,0,0-3.092-2.446,2.354,2.354,0,0,0-1.551.443,1.421,1.421,0,0,0-.526,1.145,1.311,1.311,0,0,0,.378.923,2.815,2.815,0,0,0,1.348.618l1.994.462a4.9,4.9,0,0,1,2.566,1.283,3.3,3.3,0,0,1,.822,2.335,3.692,3.692,0,0,1-1.108,2.88,3.876,3.876,0,0,1-2.751.941Z" transform="translate(-32.044 -42.502)" fill="#fff"></path>
  </g>
</svg>
