<?xml version="1.0" encoding="utf-8"?>
<!-- Generator: Adobe Illustrator 14.0.0, SVG Export Plug-In  -->
<!DOCTYPE svg PUBLIC "-//W3C//DTD SVG 1.1//EN" "http://www.w3.org/Graphics/SVG/1.1/DTD/svg11.dtd" [
	<!ENTITY ns_flows "http://ns.adobe.com/Flows/1.0/">
]>
<svg version="1.1"
	 xmlns="http://www.w3.org/2000/svg" xmlns:xlink="http://www.w3.org/1999/xlink" xmlns:a="http://ns.adobe.com/AdobeSVGViewerExtensions/3.0/"
	 x="0px" y="0px" width="512px" height="280px" viewBox="0 -0.765 512 280" enable-background="new 0 -0.765 512 280"
	 xml:space="preserve">
<defs>
</defs>
<path d="M20.601,102.644h26.514c2.49,0,5.097,0.205,7.587,0.344c2.426,0.133,4.613-1.244,5.333-3.603
	c0.977-3.2-1.172-6.339-4.486-6.69c-5.904-0.625-6.511-10.13-6.511-14.579V60.936c0-0.058,0-0.132,0.002-0.211
	c11.177-1.017,21.899-3.685,32.091-8.355v25.746c0,4.405-0.491,13.714-6.231,14.546c-3.412,0.495-5.77,3.675-4.542,7.024
	c0.799,2.182,2.927,3.433,5.213,3.302c2.462-0.143,5.027-0.344,7.488-0.344h26.51c2.321,0,4.745,0.187,7.064,0.315
	c2.455,0.134,4.729-1.11,5.481-3.532c0.963-3.083-1.083-6.32-4.289-6.755c-5.73-0.777-6.329-10.174-6.329-14.557v-38.32
	c5.857-3.213,11.538-7.037,16.564-11.403l1.176-1.022L127.97,14.49l-4.443,4.037c-3.714,3.373-7.763,6.445-12.03,9.132v-5.246
	c0-2.942,0.27-7.13,2.197-9.471c1.047-1.275,2.461-1.818,4.074-1.988c3.548-0.373,5.824-4.001,4.397-7.318
	c-0.89-2.074-2.948-3.149-5.157-3.016c-2.445,0.147-4.987,0.325-7.438,0.325h-26.51c-2.511,0-5.099-0.178-7.604-0.339
	C69.439,0.22,68.435,8.428,73,10.538c0.476,0.22,0.986,0.35,1.509,0.385c1.762,0.12,3.377,0.629,4.518,2.041
	c1.497,1.851,1.911,4.84,2.043,7.143c0.046,0.768,0.062,1.536,0.062,2.306l-0.002,18.163c0,0.052,0,0.107,0,0.167
	c-0.06,0.033-0.12,0.06-0.167,0.085c-9.598,4.73-21.152,8.416-31.923,9.347V22.93c0-3.12,0.311-7.66,2.43-10.103
	c1.112-1.283,2.58-1.792,4.242-1.906c3.989-0.275,5.729-5.373,3.482-8.412c-1.016-1.375-2.606-2.012-4.29-1.913
	c-2.561,0.155-5.225,0.348-7.788,0.348H20.601c-2.588,0-5.258-0.188-7.84-0.356C7.913,0.277,6.06,6.476,9.314,9.465
	c0.774,0.708,1.748,1.122,2.791,1.197c4.29,0.302,5.677,3.983,6.256,7.726c0.232,1.499,0.316,3.027,0.316,4.542v34.81
	C12.403,60.535,6.619,64.1,1.271,68.455L0,69.486l1.236,11.62l4.205-2.989c4.209-2.993,8.623-6.15,13.237-8.687v8.685
	c0,4.368-0.536,13.923-6.349,14.575c-3.822,0.431-5.603,5.123-3.53,8.189c1.008,1.493,2.681,2.201,4.453,2.098
	C15.67,102.836,18.179,102.644,20.601,102.644z"/>
<path d="M236.989,10.902c2.042,0.41,3.813,1.259,5.052,2.977c2.174,3.008,2.294,8.128,2.294,11.706v55.59
	c0,2.928-0.248,7.155-2.163,9.482c-0.94,1.143-2.176,1.683-3.621,1.892c-2.199,0.319-4.046,1.696-4.606,3.905
	c-0.466,1.828,0.105,3.825,1.468,5.132c1.002,0.961,2.344,1.451,3.729,1.373c4.076-0.236,8.146-0.315,12.229-0.315h18.565
	c4.271,0,8.538,0.129,12.801,0.315c2.664,0.117,5.137-1.307,5.712-4.033c0.679-3.207-1.719-6.087-4.932-6.342
	c-7.229-0.569-8.821-4.73-8.821-11.409V61.839c0.721,0.408,1.551,0.646,2.427,0.691c7.525,0.408,14.709,0.845,22.205-0.348
	c17.024-2.708,29.077-12.277,29.077-30.615c0-22.264-16.997-29.725-36.457-31.23c-3.847-0.298-7.714-0.371-11.571-0.325
	c-10.768,0.124-21.521,0.867-32.285,0.927c-3.462,0.021-6.915-0.325-10.381-0.325C232.042,0.615,231.203,9.734,236.989,10.902z
	 M274.695,14.885c0-3.331,2.199-4.215,5.244-4.205l1.022,0.004c10.6,0.035,15.032,15.078,15.032,23.62
	c0,11.838-6.42,18.204-18.286,17.796c-1.127-0.04-2.157,0.263-3.013,0.799V14.885z"/>
<path d="M415.258,10.662c6.826,2.706,7.942,5.945,11.182,12.169l21.701,41.679v16.665c0,2.907-0.216,7.139-2.1,9.462
	c-1.105,1.359-2.65,1.863-4.352,1.985c-5.021,0.364-6.261,7.043-2.46,9.587c0.828,0.551,1.798,0.808,2.787,0.75
	c3.985-0.24,7.971-0.315,11.962-0.315h18.065c3.847,0,7.681,0.092,11.517,0.315c4.097,0.235,6.689-3.874,5.031-7.453
	c-0.769-1.66-2.311-2.721-4.127-2.911c-4.709-0.493-5.726-4.482-6.045-8.583c-0.074-0.944-0.102-1.891-0.102-2.837V64.427
	l19.018-41.693c1.621-3.267,6.19-11.161,10.047-11.856c3.133-0.563,5.354-3.536,4.39-6.699c-0.748-2.438-3.061-3.697-5.524-3.52
	c-6.4,0.464-12.709,0.166-19.108-0.05c-4.463-0.149-6.951,4.872-4.438,8.331c0.915,1.259,2.331,1.957,3.88,1.987
	c3.097,0.066,3.3,2.861,2.231,5.205l-16.688,36.59l-15.33-32.619l-0.026-0.054c-0.934-1.801-2.388-5.36-1.125-7.325
	c0.848-1.318,2.891-1.677,4.319-1.764c1.693-0.104,3.196-0.96,4.041-2.451c0.898-1.58,0.856-3.557,0-5.145
	c-0.981-1.822-2.893-2.855-4.952-2.751c-4.081,0.201-8.165,0.315-12.252,0.315h-21.173c-2.851,0-5.658-0.131-8.498-0.354
	c-2.824-0.221-5.24,2.031-5.294,4.843C411.791,7.701,413.115,9.813,415.258,10.662z"/>
<path d="M315.672,130.795c-15.92-10.021-35.211-14.181-53.889-13.071c-13.631,0.81-27.216,4.437-39.252,10.936
	c-39.989,21.598-56.556,72.039-33.601,112.03c16.624,28.957,50.156,40.79,82.219,37.137c11.929-1.36,23.708-4.867,34.318-10.505
	c40.32-21.423,58.232-71.836,34.226-112.084C333.725,145.229,325.521,136.994,315.672,130.795z M295.876,259.653
	c-14.802,8.021-30.52-1.516-40.639-12.501c-18.542-20.127-31.717-51.789-34.185-78.966c-1.109-12.225-1.037-27.205,12.243-32.741
	c11.49-4.787,23.182-0.65,32.619,6.512c2.584,1.959,5.004,4.151,7.238,6.501c19.029,20.016,32.536,52.369,34.786,79.801
	C308.936,240.388,307.768,253.208,295.876,259.653z"/>
<path d="M378.778,98.926c0.677-3.207-1.719-6.087-4.932-6.342c-7.229-0.569-8.821-4.73-8.821-11.409V61.839
	c0.721,0.408,1.549,0.646,2.427,0.691c7.525,0.408,14.709,0.845,22.205-0.348c17.024-2.708,29.077-12.277,29.077-30.615
	c0-22.264-16.999-29.725-36.457-31.23c-3.847-0.298-7.714-0.371-11.573-0.325C359.938,0.137,349.186,0.88,338.42,0.94
	c-3.461,0.021-6.918-0.325-10.38-0.325c-5.668,0-6.507,9.12-0.721,10.287c2.041,0.41,3.813,1.259,5.052,2.977
	c2.174,3.008,2.294,8.128,2.294,11.706v55.59c0,2.928-0.249,7.155-2.164,9.482c-0.939,1.143-2.176,1.683-3.62,1.892
	c-2.199,0.319-4.046,1.698-4.608,3.905c-0.464,1.828,0.107,3.827,1.47,5.132c1.002,0.961,2.344,1.451,3.727,1.373
	c4.078-0.236,8.148-0.315,12.229-0.315h18.568c4.27,0,8.536,0.129,12.803,0.315C375.729,103.076,378.202,101.652,378.778,98.926z
	 M365.025,14.885c0-3.331,2.196-4.215,5.244-4.205l1.021,0.004c10.598,0.035,15.034,15.078,15.034,23.62
	c0,11.838-6.422,18.204-18.287,17.796c-1.128-0.04-2.157,0.263-3.012,0.799V14.885z"/>
<path d="M502.88,197.667c-6.448,0.634-12.949,0.921-19.438,1.006l18.432-45.901c1.472-3.669,2.913-7.76,2.209-11.764
	c-0.832-4.717-4.37-8.013-8.15-10.603c-6.396-4.381-14.322-7.196-21.771-9.163c-23.791-6.281-49.554-4.871-71.115,7.677
	c-38.408,22.352-55.065,73.603-31.59,112.562c21.739,36.076,67.202,45.312,104.581,29.534c11.898-5.024,21.98-12.642,30.288-22.524
	l0.056-0.064l0.05-0.064c2.039-2.718,2.915-4.664,2.915-8.123c0-5.346-0.072-10.679,0.111-16.022
	c0.174-5.074,0.514-10.816,1.795-15.735c0.756-2.898,0.826-6.229-1.312-8.592C508.129,197.89,505.456,197.414,502.88,197.667z
	 M415.764,221.187c-9.289-18.069-24.875-59.641-11.163-78.035c1.525-2.045,3.381-3.745,5.548-5.094
	c6.296-3.921,13.457-5.681,20.854-5.277c10.993,0.603,21.549,5.93,28.979,13.985c9.784,10.612,14.11,24.682,14.11,38.954
	c0,4.431-0.623,8.792-2.03,12.972c-7.716-0.041-15.365-0.324-23.061-1.07c-2.153-0.209-4.303-0.444-6.447-0.705
	c-1.523-0.187-3.026,0.311-4.102,1.416c-1.272,1.308-1.729,3.258-1.258,5.01c0.542,2.028,2.167,3.428,4.2,3.853
	c8.115,1.693,17.649,3.782,24.434,8.782c5.117,3.771,8.247,8.825,10.372,14.751c1.35,3.764,2.646,7.568,3.766,11.409
	c2.296,7.877,0.701,13.027-6.283,17.56c-16.161,10.484-31.684-2.095-42.076-14.426C425.5,238.027,420.093,229.613,415.764,221.187z"
	/>
<path d="M183.37,92.611c-4.009,0.24-6.224,4.646-4.183,7.995c0.985,1.615,2.737,2.443,4.608,2.353
	c4.091-0.203,8.19-0.315,12.287-0.315h22.036c2.909,0,5.791,0.066,8.688,0.294c3.99,0.315,6.364-4.008,4.822-7.428
	c-0.706-1.565-2.098-2.608-3.778-2.911c-4.168-0.741-7.072-8.182-8.472-11.607L188.711,5.934c-1.433-3.503-3.242-5.333-7.25-5.333
	h-23.208c-4.186,0-6.318,4.497-4.239,7.91c0.927,1.526,2.511,2.418,4.285,2.454c0.046,0.004,0.091,0.008,0.141,0.012l1.82,4.48
	l0.052,0.105c0.662,1.327,0.915,2.781,0.915,4.252c0,0.816-0.079,1.704-0.351,2.482l-23.893,58.698
	c-1.261,3.095-5.072,11.028-8.745,11.699c-4.231,0.774-5.738,6.021-2.762,8.923c1.007,0.985,2.354,1.447,3.752,1.337
	c6.509-0.518,12.811-0.211,19.312,0.007c4.347,0.145,6.575-4.482,4.38-7.952c-0.93-1.466-2.479-2.331-4.215-2.366
	c-0.975-0.021-2.435-0.207-3.076-1.059c-0.948-1.258-0.166-3.797,0.348-5.063l1.851-4.544l0.021-0.066
	c0.029-0.081,0.071-0.199,0.12-0.312h0.015c6.068-0.261,12.383-1.482,18.262-2.973c5.919-1.501,11.908-3.416,17.546-5.772
	c0.07-0.031,0.18-0.074,0.296-0.107l3.854,10.476l0.017,0.048c0.671,1.647,2.174,5.653,1.16,7.396
	C188.23,92.185,184.877,92.521,183.37,92.611z M152.448,70.612l16.169-39.79l11.672,31.671c0.029,0.072,0.066,0.178,0.098,0.288
	C171.503,66.364,162.005,69.427,152.448,70.612z"/>
<path fill-rule="evenodd" clip-rule="evenodd" d="M415.646,31.569c0,17.6-11.999,25.322-26.534,27.634
	c-7.358,1.171-14.176,0.716-21.57,0.316c-3.066-0.166-2.543-4.502,0.32-4.403c13.459,0.464,21.404-7.111,21.404-20.81
	c0-10.559-5.581-26.597-18.038-26.638l-1.021-0.002c-5.014-0.017-8.272,2.36-8.272,7.219v66.292c0,8.227,2.66,13.711,11.602,14.417
	c2.965,0.233,3.2,4.509-0.41,4.352c-4.348-0.19-8.587-0.319-12.933-0.319h-18.568c-4.219,0-8.176,0.075-12.4,0.319
	c-2.435,0.141-3.314-3.925,0.017-4.409c7.287-1.057,8.367-8.224,8.367-14.359V25.586c0-7.877-0.894-15.856-9.765-17.643
	c-2.251-0.451-1.907-4.31,0.124-4.31c3.474,0,6.912,0.346,10.395,0.327c10.749-0.062,21.522-0.803,32.307-0.932
	C390.682,2.795,415.646,5.815,415.646,31.569 M337.029,156.783c23.262,38.996,5.49,87.398-33.05,107.873
	c-37.098,19.714-90.351,13.124-112.505-25.468c-22.048-38.412-6.219-87.005,32.419-107.873
	C260.942,111.306,314.446,118.927,337.029,156.783 M310.873,228.014c-2.311-28.161-16.14-61.157-35.604-81.632
	c-10.977-11.543-27.228-20.379-43.206-13.719c-14.79,6.165-15.322,22.18-14.086,35.796c2.529,27.884,16.02,60.17,34.971,80.738
	c11.053,12.001,28.07,21.901,44.293,13.108C310.414,255.168,311.965,241.318,310.873,228.014 M473.319,124.16
	c8.77,2.314,15.713,5.228,20.835,8.736c8.662,5.932,8.058,10.752,4.847,18.752l-20.106,50.071c8.842,0,16.907-0.348,24.207-1.048
	c4.646-0.472,6.385,2.281,5.159,7.048c-2.366,9.034-2.004,23.279-2.004,32.518c0,2.79-0.665,4.117-2.314,6.312
	c-8.141,9.686-17.858,16.914-29.151,21.685c-35.987,15.189-79.853,6.505-100.822-28.309c-22.601-37.497-6.503-86.851,30.522-108.397
	C425.371,119.376,450.277,118.078,473.319,124.16 M482.788,241.295c-0.958-3.296-2.233-7.157-3.821-11.585
	c-6.346-17.705-19.062-21.722-37.029-25.469c-2.969-0.619-2.344-4.636,0.183-4.331c9.952,1.207,18.665,1.808,31.971,1.808
	c1.965-4.909,2.946-10.242,2.946-15.997c0-15.271-4.732-29.965-14.91-41c-13.457-14.59-35.923-20.263-53.646-9.224
	c-24.775,15.435-6.457,65.708,4.525,87.071c10.312,20.057,35.867,56.774,62.247,39.662
	C483.575,256.831,485.393,250.216,482.788,241.295 M117.378,7.956c-7.751,0.815-8.973,8.13-8.973,14.459v10.521
	c6.093-3.341,11.927-7.495,17.075-12.173l0.528,5.354c-4.966,4.312-11.047,8.422-17.604,11.875v40.126
	c0,6.312,1.22,16.5,8.941,17.548c2.561,0.346,2.735,4.468-0.621,4.281c-3.476-0.19-5.886-0.319-7.229-0.319h-26.51
	c-1.574,0-4.128,0.146-7.662,0.349c-2.88,0.165-3.312-3.855-0.066-4.327c7.712-1.116,8.817-11.159,8.817-17.531V50.351
	c0-1.561-0.451-2.629-2.047-1.781c-10.933,5.379-22.324,8.223-34.168,9.223c-1.273,0.091-1.913,1.141-1.913,3.143v17.181
	c0,6.385,1.249,16.734,9.211,17.579c2.863,0.304,2.617,4.444-0.364,4.279c-3.758-0.207-6.341-0.349-7.751-0.349H20.527
	c-1.584,0-3.955,0.133-7.523,0.34c-2.923,0.17-2.621-4.028-0.41-4.277c7.879-0.884,9.031-11.256,9.031-17.572v-13.55
	C15.347,67.333,9.215,71.679,3.619,75.66l-0.518-4.863c5.673-4.617,11.778-8.269,18.523-11.067V22.933
	c0-6.325-1.437-14.716-9.378-15.279c-2.199-0.157-2.184-4.209,0.249-4.051c3.727,0.24,6.403,0.362,8.033,0.362h26.516
	c1.437,0,4.095-0.12,7.971-0.352c2.915-0.178,2.497,4.157,0.418,4.3c-8.207,0.565-9.484,8.552-9.484,15.02v28.168
	c0,1.401,0.305,2.393,1.913,2.186c11.484-0.758,24.059-4.683,34.362-9.751c1.642-0.824,1.851-1.406,1.851-2.957l0.002-18.164
	c0.002-6.546-1.164-13.943-9.437-14.5c-1.921-0.13-2.389-4.484,0.551-4.298c3.603,0.232,6.203,0.348,7.797,0.348h26.51
	c1.395,0,3.936-0.112,7.619-0.332C120.239,3.447,120.241,7.654,117.378,7.956 M181.389,3.621c2.734,0,3.501,1.122,4.455,3.455
	l30.671,75.058c1.896,4.716,5.039,12.424,10.732,13.438c2.644,0.47,2.128,4.55-0.273,4.361c-3.097-0.246-5.84-0.307-8.927-0.307
	h-22.036c-4.165,0-8.272,0.114-12.438,0.319c-2.906,0.145-2.915-4.153-0.095-4.322c9.511-0.572,10.517-5.336,7.204-13.49
	l-3.964-10.778c-0.725-1.971-2.578-1.95-4.166-1.287c-9.692,4.058-24.114,8.06-34.77,8.515c-1.645,0-2.303,0.774-2.849,2.323
	l-1.824,4.482c-2.451,6.028-0.383,10.152,5.459,10.272c2.667,0.056,2.94,4.385,0,4.285c-6.985-0.231-12.69-0.551-19.65,0
	c-2.443,0.194-2.895-3.793-0.209-4.281c5.215-0.954,9.363-9.474,10.995-13.531l23.919-58.763c0.363-1.002,0.547-2.19,0.547-3.555
	c0-2.095-0.412-3.96-1.231-5.602l-1.774-4.368c-0.547-1.458-1.368-1.803-2.824-1.894c-2.732,0-3.01-4.331-0.157-4.331H181.389z
	 M150.444,73.861c10.67-0.994,21.423-4.394,31.39-8.439c1.884-0.766,1.766-2.48,1.217-3.971l-14.369-38.979l-19.761,48.635
	C148.196,72.888,149.193,73.977,150.444,73.861 M451.084,63.774l-22.04-42.335c-3.66-7.113-5.165-10.575-12.746-13.579
	c-1.042-0.414-1.538-1.445-1.518-2.385c0.017-1.017,0.863-1.983,2.037-1.893c3.126,0.245,5.647,0.362,8.736,0.362h21.173
	c4.167,0,8.258-0.114,12.4-0.319c2.891-0.143,3.381,4.153,0.58,4.323c-7.708,0.466-9.542,6.06-5.691,13.49l16.106,34.271
	c0.358,0.764,1.083,1.215,1.926,1.222c0.845,0.006,1.594-0.427,1.946-1.195l17.491-38.352c2.17-4.755,0.093-9.368-4.913-9.474
	c-2.662-0.056-2.537-4.383,0.394-4.286c6.774,0.226,12.658,0.532,19.428,0.043c3.17-0.229,3.37,3.702,0.383,4.24
	c-5.302,0.952-10.233,9.471-12.239,13.529l-19.31,42.335v17.403c0,6.276,1.126,13.609,8.853,14.421
	c2.712,0.284,2.514,4.518-0.418,4.348c-3.975-0.228-7.723-0.319-11.688-0.319h-18.067c-4.1,0-8.037,0.075-12.143,0.319
	c-2.215,0.133-2.614-4.118,0.07-4.312c8.148-0.59,9.25-8.004,9.25-14.456V63.774z M325.315,31.569
	c0,17.6-11.997,25.322-26.534,27.634c-7.358,1.171-14.176,0.716-21.568,0.316c-3.068-0.167-2.544-4.502,0.318-4.403
	c13.459,0.464,21.409-7.111,21.409-20.81c0-10.559-5.586-26.597-18.04-26.638l-1.023-0.002c-5.014-0.017-8.272,2.36-8.272,7.219
	v66.292c0,8.227,2.66,13.711,11.602,14.417c2.965,0.233,3.201,4.511-0.409,4.352c-4.348-0.19-8.588-0.319-12.934-0.319h-18.568
	c-4.219,0-8.175,0.075-12.4,0.319c-2.435,0.141-3.316-3.925,0.017-4.409c7.287-1.057,8.368-8.224,8.368-14.359V25.586
	c0-7.877-0.895-15.856-9.766-17.643c-2.251-0.451-1.905-4.31,0.124-4.31c3.476,0,6.912,0.346,10.395,0.327
	c10.749-0.062,21.522-0.803,32.305-0.932C300.353,2.795,325.315,5.815,325.315,31.569"/>
<path fill-rule="evenodd" clip-rule="evenodd" d="M285.941,207.948c1.182,5.324-2.133,9.577-7.224,9.766
	c-0.074,0.004-0.153,0.012-0.228,0c-5.89-0.859-11.146,0.799-16.405,3.428c-5.304,2.65-11.038-1.397-10.616-7.35
	c0.174-2.472,1.255-4.952,2.259-7.278c1.232-2.852,2.822-5.549,4.246-8.314c0.141-0.27,0.216-0.569,0.331-0.851
	c2.93-7.151,8.468-8.244,14.132-2.961c2.547,2.379,5.346,4.499,8.148,6.577C283.178,202.892,285.173,205.169,285.941,207.948"/>
<path fill-rule="evenodd" clip-rule="evenodd" d="M238.939,198.807c-0.621-2.749-0.359-4.898,1.628-6.426
	c2.065-1.588,4.348-1.303,6.446-0.096c3.268,1.884,5.1,4.756,5.1,8.596c0,3.437-2.743,5.617-6.126,4.979
	C242.525,205.208,239.647,202.194,238.939,198.807"/>
<path fill-rule="evenodd" clip-rule="evenodd" d="M260.951,183.074c0.948,4.306-0.319,7.705-2.978,8.842
	c-2.341,1.002-5.732-0.406-7.834-3.373c-1.771-2.509-2.693-5.276-2.095-8.4c0.808-4.22,4.405-5.859,8.08-3.665
	C258.848,178.105,260.247,180.658,260.951,183.074"/>
<path fill-rule="evenodd" clip-rule="evenodd" d="M264.309,183.891c-0.675-4.143-0.344-7.327,1.913-10.063
	c2.17-2.627,5.416-2.7,7.747-0.236c3.259,3.445,3.244,10.472-0.024,13.894c-2.232,2.333-5.263,2.437-7.42,0.006
	C265.443,186.28,264.789,184.694,264.309,183.891"/>
<path fill-rule="evenodd" clip-rule="evenodd" d="M290.568,187.611c0.559,3.197-0.164,6.07-2.377,8.46
	c-3.139,3.387-7.44,2.573-9.047-1.737c-1.305-3.505-0.588-6.782,1.734-9.637c1.421-1.743,3.342-2.75,5.658-2.137
	C289.051,183.226,290.14,185.183,290.568,187.611"/>
<path d="M79.89,119.564c-21.361,0-42.689,1.952-64.054,1.306c-6.865-0.207-7.287,8.919-1.598,10.238
	c3.755,0.871,7.063,2.531,9.271,5.788c3.337,4.929,3.482,12.701,3.482,18.456v86.32c0,7.925-1.213,23.445-11.739,24.201
	c-4.443,0.321-6.372,5.501-3.573,8.708c1.002,1.143,2.456,1.734,3.971,1.662c9.428-0.445,18.864-1.002,28.309-0.994
	c13.457,0.011,26.893,1.052,40.354,1.052c46.975,0,83.846-30.766,83.846-79.21C168.157,143.517,129.758,119.564,79.89,119.564z
	 M70.491,259.145V136.149c0-4.771,3.358-6.213,7.701-5.839c34.528,2.978,44.146,43.21,44.146,71.832
	c0,28.752-9.407,63.512-44.341,63.512C73.435,265.654,70.491,263.975,70.491,259.145z"/>
<path d="M79.819,122.583c-21.56,0-42.341,1.962-64.149,1.304c-3.254-0.098-2.985,3.782-0.824,4.283
	c13.763,3.192,15.088,14.494,15.088,27.184v86.32c0,9.869-1.913,26.303-14.538,27.212c-2.927,0.211-2.58,4.47,0.037,4.345
	c9.424-0.444,18.939-1.006,28.454-1c13.423,0.013,26.859,1.057,40.35,1.057c45.33,0,80.831-29.446,80.831-76.194
	C165.068,145.852,128.781,122.583,79.819,122.583z M77.927,268.674c-6.823,0-10.529-3.486-10.529-9.527V136.151
	c0-6.335,4.521-9.401,10.981-8.845c36.321,3.131,46.904,44.407,46.904,74.837C125.282,232.426,114.91,268.674,77.927,268.674z"/>
</svg>
